<svg width="14" height="13" viewBox="0 0 14 13" fill="none" xmlns="http://www.w3.org/2000/svg">
<path d="M13.9146 12.1547L9.84765 8.37831C10.619 7.49403 11.0833 6.36984 11.0833 5.14585C11.0833 2.30844 8.59733 0 5.54166 0C2.48599 0 0 2.30844 0 5.14585C0 7.98326 2.48602 10.2917 5.54169 10.2917C6.85982 10.2917 8.0705 9.86052 9.0228 9.14427L13.0897 12.9207C13.2036 13.0264 13.3883 13.0264 13.5022 12.9207L13.9146 12.5377C14.0285 12.432 14.0285 12.2605 13.9146 12.1547ZM5.54169 9.20836C3.12917 9.20836 1.16668 7.38605 1.16668 5.14585C1.16668 2.90566 3.12917 1.08334 5.54169 1.08334C7.9542 1.08334 9.9167 2.90566 9.9167 5.14585C9.9167 7.38605 7.9542 9.20836 5.54169 9.20836Z" fill="white"/>
</svg>
